<?xml version="1.0" encoding="utf-8"?>
<!-- Generator: Adobe Illustrator 19.0.0, SVG Export Plug-In . SVG Version: 6.00 Build 0)  -->
<svg version="1.1" id="Layer_1" xmlns="http://www.w3.org/2000/svg" xmlns:xlink="http://www.w3.org/1999/xlink" x="0px" y="0px"
	 viewBox="0 0 249.2 77.4" enable-background="new 0 0 249.2 77.4" xml:space="preserve">
<g>
	<g>
		<defs>
			<path id="SVGID_1_" d="M238.9,63.8l0,1.7c0.4-0.6,0.8-1.1,1.4-1.4c0.5-0.3,1.2-0.5,1.8-0.5c1,0,1.8,0.3,2.3,0.9
				c0.5,0.6,0.8,1.5,0.8,2.7v6.4h-1.1v-6.4c0-0.9-0.2-1.5-0.6-2c-0.4-0.4-0.9-0.6-1.7-0.6c-0.7,0-1.3,0.2-1.8,0.6
				c-0.5,0.4-0.9,1-1.1,1.7v6.7h-1.1v-9.8H238.9z M232.3,59.7h1.3l-2.1,2.5h-0.9L232.3,59.7z M228,68.8c0,1.2,0.3,2.1,0.9,2.9
				c0.6,0.7,1.4,1.1,2.4,1.1c1,0,1.8-0.4,2.4-1.1c0.6-0.7,0.9-1.7,0.9-3v-0.2c0-0.7-0.1-1.4-0.4-2c-0.3-0.6-0.7-1.1-1.2-1.4
				c-0.5-0.3-1.1-0.5-1.7-0.5c-1,0-1.7,0.4-2.4,1.1c-0.6,0.8-0.9,1.7-0.9,3V68.8z M226.9,68.5c0-0.9,0.2-1.8,0.5-2.5
				c0.4-0.8,0.9-1.3,1.5-1.8c0.7-0.4,1.4-0.6,2.3-0.6c1.3,0,2.4,0.5,3.2,1.4c0.8,0.9,1.2,2.1,1.2,3.6v0.2c0,0.9-0.2,1.8-0.5,2.5
				c-0.4,0.8-0.9,1.3-1.5,1.7c-0.7,0.4-1.4,0.6-2.3,0.6c-1.3,0-2.3-0.5-3.2-1.4c-0.8-0.9-1.2-2.1-1.2-3.6V68.5z M223.3,60.9
				c0-0.2,0.1-0.4,0.2-0.5c0.1-0.1,0.3-0.2,0.5-0.2c0.2,0,0.4,0.1,0.5,0.2c0.1,0.1,0.2,0.3,0.2,0.5c0,0.2-0.1,0.4-0.2,0.5
				c-0.1,0.1-0.3,0.2-0.5,0.2c-0.2,0-0.4-0.1-0.5-0.2C223.4,61.3,223.3,61.1,223.3,60.9z M224.6,73.5h-1.1v-9.8h1.1V73.5z
				 M217.4,72.8c0.8,0,1.4-0.2,1.9-0.6c0.5-0.4,0.8-1,0.8-1.6h1c0,0.6-0.2,1.1-0.6,1.6c-0.3,0.5-0.8,0.9-1.4,1.2
				c-0.6,0.3-1.2,0.4-1.8,0.4c-1.3,0-2.3-0.4-3-1.3c-0.7-0.9-1.1-2.1-1.1-3.6v-0.3c0-1,0.2-1.8,0.5-2.6c0.3-0.7,0.8-1.3,1.4-1.7
				c0.6-0.4,1.4-0.6,2.2-0.6c1.1,0,2,0.3,2.6,1c0.7,0.6,1.1,1.5,1.1,2.5h-1c0-0.8-0.3-1.4-0.8-1.8c-0.5-0.5-1.1-0.7-1.9-0.7
				c-1,0-1.7,0.4-2.3,1.1c-0.5,0.7-0.8,1.7-0.8,3v0.3c0,1.2,0.3,2.2,0.8,2.9C215.7,72.5,216.5,72.8,217.4,72.8z M210.4,68.6
				c0-1.2-0.3-2.2-0.8-3c-0.5-0.7-1.2-1.1-2.1-1.1c-0.7,0-1.2,0.2-1.7,0.5c-0.5,0.3-0.8,0.8-1.1,1.4v4.7c0.3,0.6,0.6,1,1.1,1.3
				c0.5,0.3,1,0.4,1.7,0.4c0.9,0,1.6-0.4,2.1-1.1C210.1,71,210.4,69.9,210.4,68.6z M211.4,68.8c0,1.5-0.3,2.7-1,3.6
				c-0.7,0.9-1.6,1.3-2.7,1.3c-1.3,0-2.4-0.5-3.1-1.4v5h-1.1V63.8h1l0.1,1.4c0.7-1,1.7-1.6,3.1-1.6c1.2,0,2.1,0.4,2.7,1.3
				c0.7,0.9,1,2.1,1,3.7V68.8z M199.7,72.3c-0.6,0.9-1.7,1.4-3.1,1.4c-1,0-1.8-0.3-2.4-0.9c-0.5-0.6-0.8-1.5-0.8-2.7v-6.4h1.1V70
				c0,1.9,0.8,2.8,2.3,2.8c1.6,0,2.6-0.6,3-1.9v-7.1h1.1v9.8h-1L199.7,72.3z M191.7,64.7c-0.2,0-0.5-0.1-0.7-0.1
				c-0.7,0-1.2,0.2-1.7,0.6c-0.5,0.4-0.8,0.9-1,1.6v6.7h-1.1v-9.8h1.1l0,1.6c0.6-1.2,1.5-1.7,2.8-1.7c0.3,0,0.5,0,0.7,0.1
				L191.7,64.7z M185.5,64.7c-0.2,0-0.5-0.1-0.7-0.1c-0.7,0-1.2,0.2-1.7,0.6c-0.5,0.4-0.8,0.9-1,1.6v6.7H181v-9.8h1.1l0,1.6
				c0.6-1.2,1.5-1.7,2.8-1.7c0.3,0,0.5,0,0.7,0.1L185.5,64.7z M171.1,68.8c0,1.2,0.3,2.1,0.9,2.9c0.6,0.7,1.4,1.1,2.4,1.1
				c1,0,1.8-0.4,2.4-1.1c0.6-0.7,0.9-1.7,0.9-3v-0.2c0-0.7-0.1-1.4-0.4-2c-0.3-0.6-0.7-1.1-1.2-1.4c-0.5-0.3-1.1-0.5-1.7-0.5
				c-1,0-1.7,0.4-2.4,1.1c-0.6,0.8-0.9,1.7-0.9,3V68.8z M170.1,68.5c0-0.9,0.2-1.8,0.5-2.5c0.4-0.8,0.9-1.3,1.5-1.8
				c0.7-0.4,1.4-0.6,2.3-0.6c1.3,0,2.4,0.5,3.2,1.4c0.8,0.9,1.2,2.1,1.2,3.6v0.2c0,0.9-0.2,1.8-0.5,2.5c-0.4,0.8-0.9,1.3-1.5,1.7
				c-0.7,0.4-1.4,0.6-2.3,0.6c-1.3,0-2.3-0.5-3.2-1.4c-0.8-0.9-1.2-2.1-1.2-3.6V68.5z M164.7,72.8c0.8,0,1.4-0.2,1.9-0.6
				c0.5-0.4,0.8-1,0.8-1.6h1c0,0.6-0.2,1.1-0.6,1.6c-0.3,0.5-0.8,0.9-1.4,1.2c-0.6,0.3-1.2,0.4-1.8,0.4c-1.3,0-2.3-0.4-3-1.3
				c-0.7-0.9-1.1-2.1-1.1-3.6v-0.3c0-1,0.2-1.8,0.5-2.6c0.3-0.7,0.8-1.3,1.4-1.7c0.6-0.4,1.4-0.6,2.2-0.6c1.1,0,2,0.3,2.6,1
				c0.7,0.6,1.1,1.5,1.1,2.5h-1c0-0.8-0.3-1.4-0.8-1.8c-0.5-0.5-1.1-0.7-1.9-0.7c-1,0-1.7,0.4-2.3,1.1c-0.5,0.7-0.8,1.7-0.8,3v0.3
				c0,1.2,0.3,2.2,0.8,2.9C163,72.5,163.8,72.8,164.7,72.8z M156.9,60.9c0-0.2,0.1-0.4,0.2-0.5c0.1-0.1,0.3-0.2,0.5-0.2
				c0.2,0,0.4,0.1,0.5,0.2c0.1,0.1,0.2,0.3,0.2,0.5c0,0.2-0.1,0.4-0.2,0.5c-0.1,0.1-0.3,0.2-0.5,0.2c-0.2,0-0.4-0.1-0.5-0.2
				C157,61.3,156.9,61.1,156.9,60.9z M158.2,73.5h-1.1v-9.8h1.1V73.5z M152.7,61.3v2.5h2v0.9h-2v6.5c0,0.5,0.1,0.9,0.3,1.2
				c0.2,0.3,0.5,0.4,1,0.4c0.2,0,0.5,0,0.9-0.1l0,0.9c-0.3,0.1-0.7,0.2-1.2,0.2c-0.7,0-1.3-0.2-1.6-0.6c-0.3-0.4-0.5-1.1-0.5-1.9
				v-6.5h-1.8v-0.9h1.8v-2.5H152.7z M141.9,63.8l0,1.7c0.4-0.6,0.8-1.1,1.4-1.4c0.5-0.3,1.2-0.5,1.8-0.5c1,0,1.8,0.3,2.3,0.9
				c0.5,0.6,0.8,1.5,0.8,2.7v6.4h-1.1v-6.4c0-0.9-0.2-1.5-0.6-2c-0.4-0.4-0.9-0.6-1.7-0.6c-0.7,0-1.3,0.2-1.8,0.6
				c-0.5,0.4-0.9,1-1.1,1.7v6.7h-1.1v-9.8H141.9z M131.1,68.9h5.3l-2.6-7.2L131.1,68.9z M136.7,69.9h-6l-1.4,3.7h-1.2l5-13.1h1.1
				l5,13.1h-1.2L136.7,69.9z M121.9,73.5h-1.1V59.7h1.1V73.5z M113.6,72.8c0.7,0,1.4-0.2,1.9-0.5c0.6-0.3,1-0.8,1.2-1.4v-2.1h-1.9
				c-1.1,0-1.9,0.2-2.5,0.6c-0.6,0.4-0.9,0.9-0.9,1.6c0,0.5,0.2,1,0.6,1.4C112.4,72.6,113,72.8,113.6,72.8z M117,73.5
				c-0.1-0.3-0.2-0.8-0.2-1.4c-0.4,0.5-0.9,0.9-1.4,1.1c-0.6,0.3-1.2,0.4-1.9,0.4c-0.9,0-1.7-0.3-2.3-0.8c-0.6-0.5-0.9-1.2-0.9-2
				c0-1,0.4-1.7,1.2-2.3c0.8-0.6,1.9-0.8,3.3-0.8h2v-1.1c0-0.7-0.2-1.2-0.6-1.6c-0.4-0.4-1.1-0.6-1.9-0.6c-0.8,0-1.4,0.2-1.9,0.6
				c-0.5,0.4-0.7,0.8-0.7,1.4l-1.1,0c0-0.8,0.4-1.4,1.1-2c0.7-0.6,1.6-0.9,2.7-0.9c1.1,0,1.9,0.3,2.6,0.8c0.6,0.5,1,1.3,1,2.3v4.6
				c0,0.9,0.1,1.7,0.3,2.1v0.1H117z M101.2,68.8c0,1.2,0.2,2.2,0.7,2.9c0.5,0.7,1.2,1.1,2.1,1.1c1.3,0,2.3-0.6,2.8-1.8v-4.5
				c-0.3-0.6-0.6-1.1-1.1-1.4c-0.5-0.3-1-0.5-1.7-0.5c-0.9,0-1.6,0.4-2.1,1.1C101.5,66.3,101.2,67.4,101.2,68.8z M100.1,68.6
				c0-1.5,0.3-2.7,1-3.6c0.7-0.9,1.6-1.3,2.8-1.3c1.3,0,2.3,0.5,3,1.6l0.1-1.4h1v9.6c0,1.3-0.4,2.3-1.1,3c-0.7,0.7-1.7,1.1-2.9,1.1
				c-0.7,0-1.3-0.2-1.9-0.5c-0.6-0.3-1.1-0.7-1.5-1.2l0.6-0.6c0.8,0.9,1.7,1.4,2.7,1.4c0.9,0,1.6-0.3,2.1-0.8
				c0.5-0.5,0.8-1.3,0.8-2.2v-1.2c-0.7,1-1.7,1.4-3,1.4c-1.1,0-2-0.5-2.7-1.4c-0.7-0.9-1-2.1-1-3.7V68.6z M94.6,64.5
				c-0.8,0-1.5,0.3-2.1,0.9c-0.6,0.6-0.9,1.4-1,2.4h5.9v-0.1c0-0.9-0.3-1.7-0.8-2.3C96.1,64.8,95.4,64.5,94.6,64.5z M94.8,73.7
				c-0.8,0-1.6-0.2-2.3-0.6c-0.7-0.4-1.2-1-1.6-1.7c-0.4-0.7-0.6-1.6-0.6-2.5v-0.4c0-0.9,0.2-1.8,0.5-2.5c0.4-0.8,0.9-1.3,1.5-1.8
				c0.6-0.4,1.4-0.6,2.1-0.6c1.2,0,2.1,0.4,2.8,1.2c0.7,0.8,1,1.9,1,3.3v0.6h-7v0.2c0,1.1,0.3,2,1,2.8c0.6,0.7,1.4,1.1,2.4,1.1
				c0.6,0,1.1-0.1,1.5-0.3c0.4-0.2,0.8-0.5,1.2-1l0.7,0.5C97.5,73.1,96.3,73.7,94.8,73.7z M82.7,72.6h6.5v0.9h-7.6V60.4h1.1V72.6z
				 M69.7,72.8c0.7,0,1.4-0.2,1.9-0.5c0.6-0.3,1-0.8,1.2-1.4v-2.1h-1.9c-1.1,0-1.9,0.2-2.5,0.6c-0.6,0.4-0.9,0.9-0.9,1.6
				c0,0.5,0.2,1,0.6,1.4C68.5,72.6,69,72.8,69.7,72.8z M73.1,73.5c-0.1-0.3-0.2-0.8-0.2-1.4c-0.4,0.5-0.9,0.9-1.4,1.1
				c-0.6,0.3-1.2,0.4-1.9,0.4c-0.9,0-1.7-0.3-2.3-0.8c-0.6-0.5-0.9-1.2-0.9-2c0-1,0.4-1.7,1.2-2.3c0.8-0.6,1.9-0.8,3.3-0.8h2v-1.1
				c0-0.7-0.2-1.2-0.6-1.6c-0.4-0.4-1.1-0.6-1.9-0.6c-0.8,0-1.4,0.2-1.9,0.6c-0.5,0.4-0.7,0.8-0.7,1.4l-1.1,0c0-0.8,0.4-1.4,1.1-2
				c0.7-0.6,1.6-0.9,2.7-0.9c1.1,0,1.9,0.3,2.6,0.8c0.6,0.5,1,1.3,1,2.3v4.6c0,0.9,0.1,1.7,0.3,2.1v0.1H73.1z M64.5,59.8h1.3
				l-2.1,2.5h-0.9L64.5,59.8z M64,73.5h-1.1v-9.8H64V73.5z M61.1,64.7c-0.2,0-0.5-0.1-0.7-0.1c-0.7,0-1.2,0.2-1.7,0.6
				c-0.5,0.4-0.8,0.9-1,1.6v6.7h-1.1v-9.8h1.1l0,1.6c0.6-1.2,1.5-1.7,2.8-1.7c0.3,0,0.5,0,0.7,0.1L61.1,64.7z M46.7,68.8
				c0,1.2,0.3,2.1,0.9,2.9c0.6,0.7,1.4,1.1,2.4,1.1c1,0,1.8-0.4,2.4-1.1c0.6-0.7,0.9-1.7,0.9-3v-0.2c0-0.7-0.1-1.4-0.4-2
				c-0.3-0.6-0.7-1.1-1.2-1.4c-0.5-0.3-1.1-0.5-1.7-0.5c-1,0-1.7,0.4-2.4,1.1c-0.6,0.8-0.9,1.7-0.9,3V68.8z M45.6,68.5
				c0-0.9,0.2-1.8,0.5-2.5c0.4-0.8,0.9-1.3,1.5-1.8c0.7-0.4,1.4-0.6,2.3-0.6c1.3,0,2.4,0.5,3.2,1.4c0.8,0.9,1.2,2.1,1.2,3.6v0.2
				c0,0.9-0.2,1.8-0.5,2.5c-0.4,0.8-0.9,1.3-1.5,1.7c-0.7,0.4-1.4,0.6-2.3,0.6c-1.3,0-2.3-0.5-3.2-1.4c-0.8-0.9-1.2-2.1-1.2-3.6
				V68.5z M42.7,71.1c0-0.5-0.2-1-0.6-1.3c-0.4-0.3-1.1-0.6-1.9-0.8c-0.9-0.2-1.5-0.4-2-0.6c-0.5-0.2-0.8-0.5-1.1-0.9
				c-0.2-0.3-0.3-0.8-0.3-1.2c0-0.8,0.3-1.4,1-1.9c0.6-0.5,1.5-0.8,2.5-0.8c1.1,0,2,0.3,2.6,0.8c0.7,0.5,1,1.2,1,2.1h-1.1
				c0-0.6-0.2-1-0.7-1.4c-0.5-0.4-1.1-0.6-1.8-0.6c-0.7,0-1.3,0.2-1.7,0.5c-0.4,0.3-0.6,0.7-0.6,1.2c0,0.5,0.2,0.9,0.5,1.1
				c0.4,0.3,1,0.5,2,0.7c0.9,0.2,1.7,0.5,2.1,0.7c0.5,0.3,0.8,0.6,1.1,0.9c0.2,0.4,0.3,0.8,0.3,1.3c0,0.8-0.3,1.5-1,2
				c-0.7,0.5-1.5,0.7-2.6,0.7c-1.1,0-2.1-0.3-2.8-0.8c-0.7-0.6-1.1-1.2-1.1-2.1h1.1c0,0.6,0.3,1.1,0.8,1.5c0.5,0.4,1.1,0.5,1.9,0.5
				c0.8,0,1.4-0.2,1.8-0.5C42.5,72,42.7,71.6,42.7,71.1z M30.9,64.5c-0.8,0-1.5,0.3-2.1,0.9c-0.6,0.6-0.9,1.4-1,2.4h5.9v-0.1
				c0-0.9-0.3-1.7-0.8-2.3C32.4,64.8,31.7,64.5,30.9,64.5z M31.1,73.7c-0.8,0-1.6-0.2-2.3-0.6c-0.7-0.4-1.2-1-1.6-1.7
				c-0.4-0.7-0.6-1.6-0.6-2.5v-0.4c0-0.9,0.2-1.8,0.5-2.5c0.4-0.8,0.9-1.3,1.5-1.8c0.6-0.4,1.4-0.6,2.1-0.6c1.2,0,2.1,0.4,2.8,1.2
				c0.7,0.8,1,1.9,1,3.3v0.6h-7v0.2c0,1.1,0.3,2,1,2.8c0.6,0.7,1.4,1.1,2.4,1.1c0.6,0,1.1-0.1,1.5-0.3c0.4-0.2,0.8-0.5,1.2-1
				l0.7,0.5C33.8,73.1,32.6,73.7,31.1,73.7z M23.8,71.1c0-0.5-0.2-1-0.6-1.3c-0.4-0.3-1.1-0.6-1.9-0.8c-0.9-0.2-1.5-0.4-2-0.6
				c-0.5-0.2-0.8-0.5-1.1-0.9c-0.2-0.3-0.3-0.8-0.3-1.2c0-0.8,0.3-1.4,1-1.9c0.6-0.5,1.5-0.8,2.5-0.8c1.1,0,2,0.3,2.6,0.8
				c0.7,0.5,1,1.2,1,2.1h-1.1c0-0.6-0.2-1-0.7-1.4c-0.5-0.4-1.1-0.6-1.8-0.6c-0.7,0-1.3,0.2-1.7,0.5c-0.4,0.3-0.6,0.7-0.6,1.2
				c0,0.5,0.2,0.9,0.5,1.1c0.4,0.3,1,0.5,2,0.7c0.9,0.2,1.7,0.5,2.1,0.7c0.5,0.3,0.8,0.6,1.1,0.9c0.2,0.4,0.3,0.8,0.3,1.3
				c0,0.8-0.3,1.5-1,2c-0.7,0.5-1.5,0.7-2.6,0.7c-1.1,0-2.1-0.3-2.8-0.8c-0.7-0.6-1.1-1.2-1.1-2.1h1.1c0,0.6,0.3,1.1,0.8,1.5
				c0.5,0.4,1.1,0.5,1.9,0.5c0.8,0,1.4-0.2,1.8-0.5C23.6,72,23.8,71.6,23.8,71.1z M8.1,68.9h5.3l-2.6-7.2L8.1,68.9z M13.8,69.9h-6
				l-1.4,3.7H5.3l5-13.1h1.1l5,13.1h-1.2L13.8,69.9z"/>
		</defs>
		<use xlink:href="#SVGID_1_"  overflow="visible" fill-rule="evenodd" clip-rule="evenodd" fill="#5D5D5D"/>
		<clipPath id="SVGID_2_">
			<use xlink:href="#SVGID_1_"  overflow="visible"/>
		</clipPath>
		<g clip-path="url(#SVGID_2_)">
			<defs>
				<rect id="SVGID_3_" x="-153.1" y="-190.8" width="554.7" height="717.8"/>
			</defs>
			<use xlink:href="#SVGID_3_"  overflow="visible" fill="#5D5D5D"/>
			<clipPath id="SVGID_4_">
				<use xlink:href="#SVGID_3_"  overflow="visible"/>
			</clipPath>
			<rect x="0.8" y="55.1" clip-path="url(#SVGID_4_)" fill="#5D5D5D" width="249" height="26.8"/>
		</g>
	</g>
	<g>
		<defs>
			<path id="SVGID_5_" d="M3.6,0h124c2,0,3.6,1.6,3.6,3.6v41.8c0,2-1.6,3.6-3.6,3.6H3.6c-2,0-3.6-1.6-3.6-3.6V3.6C0,1.6,1.6,0,3.6,0
				z"/>
		</defs>
		<use xlink:href="#SVGID_5_"  overflow="visible" fill-rule="evenodd" clip-rule="evenodd" fill="#389AAC"/>
		<clipPath id="SVGID_6_">
			<use xlink:href="#SVGID_5_"  overflow="visible"/>
		</clipPath>
		<g clip-path="url(#SVGID_6_)">
			<defs>
				<rect id="SVGID_7_" x="-153.1" y="-190.8" width="554.7" height="717.8"/>
			</defs>
			<use xlink:href="#SVGID_7_"  overflow="visible" fill="#389AAC"/>
			<clipPath id="SVGID_8_">
				<use xlink:href="#SVGID_7_"  overflow="visible"/>
			</clipPath>
			<rect x="-4.5" y="-4.5" clip-path="url(#SVGID_8_)" fill="#389AAC" width="140.3" height="58.1"/>
		</g>
	</g>
	<g>
		<defs>
			<path id="SVGID_9_" d="M230.3,40.2V9.5H248v2.6h-14.7v10.7h13.1v2.6h-13.1v12.2h15.9v2.6H230.3z M225.5,37.6v2.6H208V9.5h3v28.1
				H225.5z M197,9.5h3v30.7h-3V9.5z M186,9.5h3v30.7h-3V25.5h-16.7v14.8h-3V9.5h3v13.4H186V9.5z M152.1,40.9c-2,0-3.8-0.4-5.5-1.1
				c-1.7-0.7-3.2-1.7-4.4-3.1c-1.3-1.4-2.2-3-3-5c-0.7-2-1.1-4.3-1.1-6.9c0-2.6,0.4-4.9,1.2-6.9c0.8-2,1.8-3.7,3.1-5
				c1.3-1.4,2.8-2.4,4.5-3.1c1.7-0.7,3.5-1,5.4-1c1.2,0,2.2,0.1,3.1,0.2c0.9,0.1,1.8,0.3,2.5,0.6c0.7,0.2,1.3,0.4,1.8,0.7
				c0.5,0.2,0.9,0.4,1.2,0.6l-1,2.6c-0.7-0.4-1.7-0.9-2.8-1.3c-1.1-0.4-2.5-0.6-4.2-0.6c-1.9,0-3.6,0.3-5,1
				c-1.4,0.7-2.6,1.6-3.6,2.8c-1,1.2-1.7,2.6-2.2,4.2c-0.5,1.6-0.7,3.4-0.7,5.4c0,2,0.2,3.9,0.7,5.5c0.5,1.6,1.2,3,2.2,4.2
				c0.9,1.2,2.1,2,3.5,2.7c1.4,0.6,2.9,0.9,4.7,0.9c2,0,3.6-0.2,4.9-0.6c1.3-0.4,2.3-0.7,3-1.1l0.8,2.6c-0.2,0.1-0.6,0.3-1.1,0.5
				c-0.5,0.2-1.1,0.4-1.9,0.6c-0.8,0.2-1.7,0.4-2.7,0.5C154.5,40.8,153.4,40.9,152.1,40.9z"/>
		</defs>
		<use xlink:href="#SVGID_9_"  overflow="visible" fill-rule="evenodd" clip-rule="evenodd" fill="#389AAC"/>
		<clipPath id="SVGID_10_">
			<use xlink:href="#SVGID_9_"  overflow="visible"/>
		</clipPath>
		<g clip-path="url(#SVGID_10_)">
			<defs>
				<rect id="SVGID_11_" x="-153.1" y="-190.8" width="554.7" height="717.8"/>
			</defs>
			<use xlink:href="#SVGID_11_"  overflow="visible" fill="#389AAC"/>
			<clipPath id="SVGID_12_">
				<use xlink:href="#SVGID_11_"  overflow="visible"/>
			</clipPath>
			<rect x="133.6" y="4.3" clip-path="url(#SVGID_12_)" fill="#389AAC" width="120.2" height="41.1"/>
		</g>
	</g>
	<g>
		<defs>
			<path id="SVGID_13_" d="M112.8,40.9c-2.3,0-4.4-0.4-6.2-1.1c-1.8-0.7-3.4-1.8-4.7-3.1c-1.3-1.4-2.2-3.1-2.9-5c-0.7-2-1-4.3-1-6.8
				c0-2.6,0.4-4.8,1.2-6.8c0.8-2,1.9-3.7,3.2-5c1.4-1.4,3-2.4,4.8-3.1c1.8-0.7,3.8-1.1,5.9-1.1c1.3,0,2.4,0.1,3.5,0.3
				c1,0.2,1.9,0.4,2.7,0.6c0.8,0.2,1.4,0.5,1.9,0.8c0.5,0.3,0.9,0.5,1.1,0.6l-1.6,4.6c-0.7-0.4-1.7-0.9-3-1.3
				c-1.3-0.4-2.7-0.6-4.3-0.6c-1.3,0-2.6,0.2-3.7,0.7c-1.2,0.5-2.2,1.1-3,2.1c-0.8,0.9-1.5,2.1-2,3.5c-0.5,1.4-0.7,3-0.7,4.8
				c0,1.6,0.2,3.1,0.6,4.5c0.4,1.4,0.9,2.5,1.7,3.5c0.8,1,1.7,1.8,2.9,2.3c1.2,0.5,2.6,0.8,4.3,0.8c2,0,3.6-0.2,4.8-0.6
				c1.2-0.4,2.2-0.8,2.9-1.1l1.5,4.6c-0.4,0.2-0.8,0.5-1.4,0.7c-0.6,0.2-1.3,0.5-2.2,0.7c-0.8,0.2-1.8,0.4-2.8,0.5
				C115.1,40.8,114,40.9,112.8,40.9z M79.2,15.4c-0.7,1.6-1.5,3.5-2.3,5.7c-0.9,2.2-1.8,4.7-2.7,7.3h10.1c-0.9-2.6-1.9-5.1-2.8-7.4
				C80.6,18.8,79.9,16.9,79.2,15.4z M88.3,40.2c-0.4-1.2-0.8-2.4-1.3-3.6c-0.4-1.2-0.9-2.4-1.3-3.6h-13c-0.4,1.2-0.8,2.5-1.3,3.7
				c-0.4,1.2-0.9,2.4-1.3,3.6h-5.8c1.2-3.3,2.2-6.3,3.3-9.1c1-2.8,2-5.4,3-7.9c1-2.5,2-4.8,2.9-7.1c1-2.2,2-4.5,3-6.7H82
				c1,2.2,2,4.4,3,6.7c1,2.2,2,4.6,2.9,7.1c1,2.5,2,5.1,3.1,7.9c1,2.8,2.2,5.8,3.3,9.1H88.3z M59.9,35.4v4.8H40.5V9.5h5.6v25.9H59.9
				z M21.5,15.4c-0.7,1.6-1.5,3.5-2.3,5.7c-0.9,2.2-1.8,4.7-2.7,7.3h10.1c-0.9-2.6-1.9-5.1-2.8-7.4C22.9,18.8,22.2,16.9,21.5,15.4z
				 M30.6,40.2c-0.4-1.2-0.8-2.4-1.3-3.6c-0.4-1.2-0.9-2.4-1.3-3.6H15c-0.4,1.2-0.8,2.5-1.3,3.7c-0.4,1.2-0.8,2.4-1.3,3.6H6.7
				c1.2-3.3,2.2-6.3,3.3-9.1c1-2.8,2-5.4,3-7.9c1-2.5,2-4.8,2.9-7.1c1-2.2,2-4.5,3-6.7h5.3c1,2.2,2,4.4,3,6.7c1,2.2,2,4.6,2.9,7.1
				c1,2.5,2,5.1,3.1,7.9c1,2.8,2.2,5.8,3.3,9.1H30.6z"/>
		</defs>
		<clipPath id="SVGID_14_">
			<use xlink:href="#SVGID_13_"  overflow="visible"/>
		</clipPath>
		<g clip-path="url(#SVGID_14_)">
			<defs>
				<rect id="SVGID_15_" x="-153.1" y="-190.8" width="554.7" height="717.8"/>
			</defs>
			<clipPath id="SVGID_16_">
				<use xlink:href="#SVGID_15_"  overflow="visible"/>
			</clipPath>
			<rect x="2.2" y="4.2" clip-path="url(#SVGID_16_)" fill="#FFFFFF" width="124.9" height="41.2"/>
		</g>
	</g>
</g>
</svg>
