<?xml version="1.0" encoding="UTF-8" standalone="no"?>
<svg
   xmlns:dc="http://purl.org/dc/elements/1.1/"
   xmlns:cc="http://creativecommons.org/ns#"
   xmlns:rdf="http://www.w3.org/1999/02/22-rdf-syntax-ns#"
   xmlns:svg="http://www.w3.org/2000/svg"
   xmlns="http://www.w3.org/2000/svg"
   viewBox="0 0 1632 1056"
   height="1056"
   width="1632"
   xml:space="preserve"
   id="svg2"
   version="1.1"><metadata
     id="metadata8"><rdf:RDF><cc:Work
         rdf:about=""><dc:format>image/svg+xml</dc:format><dc:type
           rdf:resource="http://purl.org/dc/dcmitype/StillImage" /><dc:title></dc:title></cc:Work></rdf:RDF></metadata><defs
     id="defs6"><clipPath
       id="clipPath18"
       clipPathUnits="userSpaceOnUse"><path
         id="path16"
         d="M 0,792 H 1224 V 0 H 0 Z" /></clipPath></defs><g
     transform="matrix(1.3333333,0,0,-1.3333333,0,1056)"
     id="g10"><g
       id="g12"><g
         clip-path="url(#clipPath18)"
         id="g14"><g
           transform="translate(243.1436,398.4077)"
           id="g20"><path
             id="path22"
             style="fill:#000000;fill-opacity:1;fill-rule:nonzero;stroke:none"
             d="m 0,0 v -19.187 c 0,-2.623 1.14,-3.99 3.686,-3.99 2.544,0 3.722,1.367 3.722,3.99 V 0 h 5.244 v -19.226 c 0,-6.041 -3.572,-8.586 -8.966,-8.586 -5.396,0 -8.929,2.545 -8.929,8.586 V 0 Z" /></g><g
           transform="translate(261.1182,370.9746)"
           id="g24"><path
             id="path26"
             style="fill:#000000;fill-opacity:1;fill-rule:nonzero;stroke:none"
             d="m 0,0 v 27.433 h 5.737 l 7.295,-16.261 h 0.075 v 16.261 h 4.789 V 0 H 12.88 L 4.863,17.707 H 4.787 L 4.787,0 Z" /></g><g
           transform="translate(289.6553,381.3867)"
           id="g28"><path
             id="path30"
             style="fill:#000000;fill-opacity:1;fill-rule:nonzero;stroke:none"
             d="M 0,0 H 5.205 L 2.659,11.094 H 2.583 Z m -7.485,-10.412 6.8,27.433 h 6.726 l 6.61,-27.433 H 7.637 l -1.33,5.775 H -0.95 l -1.482,-5.775 z" /></g><g
           transform="translate(321.2705,386.3242)"
           id="g32"><path
             id="path34"
             style="fill:#000000;fill-opacity:1;fill-rule:nonzero;stroke:none"
             d="m 0,0 h 2.812 c 2.584,0 3.875,1.293 3.875,3.877 0,2.582 -1.291,3.875 -3.875,3.875 H 0 Z m -5.243,-15.35 v 27.433 h 7.561 c 6.459,0 9.613,-3.04 9.613,-8.206 0,-5.168 -3.154,-8.207 -9.613,-8.207 H 0 v -11.02 z" /></g><g
           transform="translate(336.8516,370.9746)"
           id="g36"><path
             id="path38"
             style="fill:#000000;fill-opacity:1;fill-rule:nonzero;stroke:none"
             d="M 0,0 V 27.433 H 5.243 V 4.637 h 8.435 V 0 Z" /></g><g
           transform="translate(359.3467,381.3867)"
           id="g40"><path
             id="path42"
             style="fill:#000000;fill-opacity:1;fill-rule:nonzero;stroke:none"
             d="M 0,0 H 5.205 L 2.659,11.094 H 2.583 Z m -7.485,-10.412 6.8,27.433 h 6.726 l 6.61,-27.433 H 7.637 l -1.33,5.775 H -0.95 l -1.482,-5.775 z" /></g><g
           transform="translate(388.6455,398.4077)"
           id="g44"><path
             id="path46"
             style="fill:#000000;fill-opacity:1;fill-rule:nonzero;stroke:none"
             d="m 0,0 v -4.636 h -6.117 v -22.797 h -5.243 v 22.797 h -6.118 V 0 Z" /></g><g
           transform="translate(395.9863,381.3867)"
           id="g48"><path
             id="path50"
             style="fill:#000000;fill-opacity:1;fill-rule:nonzero;stroke:none"
             d="M 0,0 H 5.205 L 2.659,11.094 H 2.583 Z m -7.485,-10.412 6.8,27.433 h 6.726 l 6.61,-27.433 H 7.637 l -1.33,5.775 H -0.95 l -1.482,-5.775 z" /></g><g
           transform="translate(411.4902,370.9746)"
           id="g52"><path
             id="path54"
             style="fill:#000000;fill-opacity:1;fill-rule:nonzero;stroke:none"
             d="M 0,0 V 27.433 H 13.679 V 22.797 H 5.243 V 16.49 h 6.611 V 11.855 H 5.243 L 5.243,0 Z" /></g><g
           transform="translate(433.1494,379.1055)"
           id="g56"><path
             id="path58"
             style="fill:#000000;fill-opacity:1;fill-rule:nonzero;stroke:none"
             d="m 0,0 c 0,-3.039 1.33,-3.875 3.42,-3.875 2.09,0 3.419,0.836 3.419,3.875 v 11.172 c 0,3.039 -1.329,3.875 -3.419,3.875 C 1.33,15.047 0,14.211 0,11.172 Z m -5.243,10.486 c 0,6.764 3.571,9.196 8.663,9.196 5.091,0 8.662,-2.432 8.662,-9.196 V 0.684 c 0,-6.762 -3.571,-9.194 -8.662,-9.194 -5.092,0 -8.663,2.432 -8.663,9.194 z" /></g><g
           transform="translate(454.7334,386.4766)"
           id="g60"><path
             id="path62"
             style="fill:#000000;fill-opacity:1;fill-rule:nonzero;stroke:none"
             d="M 0,0 H 2.697 C 5.016,0 6.421,1.141 6.421,3.801 6.421,6.459 5.016,7.6 2.697,7.6 H 0 Z M 7.067,-15.502 2.508,-4.33 H 0 v -11.172 h -5.243 v 27.433 h 7.598 c 6.308,0 9.309,-3.04 9.309,-8.206 0,-3.42 -1.216,-5.891 -4.142,-6.993 l 5.168,-12.234 z" /></g><g
           transform="translate(470.9219,370.9746)"
           id="g64"><path
             id="path66"
             style="fill:#000000;fill-opacity:1;fill-rule:nonzero;stroke:none"
             d="M 0,0 V 27.433 H 7.333 L 12.082,9.424 h 0.076 l 4.749,18.009 H 24.24 V 0 H 19.757 V 21.582 H 19.682 L 14.096,0 H 10.145 L 4.56,21.582 H 4.483 V 0 Z" /></g><g
           transform="translate(505.8057,381.3867)"
           id="g68"><path
             id="path70"
             style="fill:#000000;fill-opacity:1;fill-rule:nonzero;stroke:none"
             d="M 0,0 H 5.205 L 2.659,11.094 H 2.583 Z m -7.485,-10.412 6.8,27.433 h 6.726 l 6.61,-27.433 H 7.637 l -1.33,5.775 H -0.95 l -1.482,-5.775 z" /></g><g
           transform="translate(537.4209,386.3242)"
           id="g72"><path
             id="path74"
             style="fill:#000000;fill-opacity:1;fill-rule:nonzero;stroke:none"
             d="m 0,0 h 2.812 c 2.584,0 3.875,1.293 3.875,3.877 0,2.582 -1.291,3.875 -3.875,3.875 H 0 Z m -5.243,-15.35 v 27.433 h 7.561 c 6.459,0 9.613,-3.04 9.613,-8.206 0,-5.168 -3.154,-8.207 -9.613,-8.207 H 0 v -11.02 z" /></g><g
           transform="translate(557.2246,381.3867)"
           id="g76"><path
             id="path78"
             style="fill:#000000;fill-opacity:1;fill-rule:nonzero;stroke:none"
             d="M 0,0 H 5.205 L 2.659,11.094 H 2.583 Z m -7.485,-10.412 6.8,27.433 h 6.726 l 6.61,-27.433 H 7.637 l -1.33,5.775 H -0.95 l -1.482,-5.775 z" /></g><g
           transform="translate(577.9717,386.4766)"
           id="g80"><path
             id="path82"
             style="fill:#000000;fill-opacity:1;fill-rule:nonzero;stroke:none"
             d="M 0,0 H 2.698 C 5.016,0 6.422,1.141 6.422,3.801 6.422,6.459 5.016,7.6 2.698,7.6 H 0 Z M 7.067,-15.502 2.508,-4.33 H 0 v -11.172 h -5.243 v 27.433 h 7.599 c 6.307,0 9.309,-3.04 9.309,-8.206 0,-3.42 -1.216,-5.891 -4.142,-6.993 l 5.167,-12.234 z" /></g><g
           transform="translate(599.4805,381.3867)"
           id="g84"><path
             id="path86"
             style="fill:#000000;fill-opacity:1;fill-rule:nonzero;stroke:none"
             d="M 0,0 H 5.205 L 2.659,11.094 H 2.583 Z m -7.485,-10.412 6.8,27.433 h 6.726 l 6.61,-27.433 H 7.637 l -1.33,5.775 H -0.95 l -1.482,-5.775 z" /></g><g
           transform="translate(625.5488,370.9746)"
           id="g88"><path
             id="path90"
             style="fill:#000000;fill-opacity:1;fill-rule:nonzero;stroke:none"
             d="M 0,0 V 27.433 H 5.243 V 4.637 h 8.435 V 0 Z" /></g><g
           transform="translate(648.0439,381.3867)"
           id="g92"><path
             id="path94"
             style="fill:#000000;fill-opacity:1;fill-rule:nonzero;stroke:none"
             d="M 0,0 H 5.205 L 2.659,11.094 H 2.583 Z m -7.485,-10.412 6.8,27.433 h 6.726 l 6.61,-27.433 H 7.637 l -1.33,5.775 H -0.95 l -1.482,-5.775 z" /></g><g
           transform="translate(687.2197,373.2559)"
           id="g96"><path
             id="path98"
             style="fill:#000000;fill-opacity:1;fill-rule:nonzero;stroke:none"
             d="m 0,0 c -1.405,-1.596 -2.926,-2.66 -4.9,-2.66 -5.092,0 -8.663,2.431 -8.663,9.193 v 9.803 c 0,6.764 3.571,9.196 8.663,9.196 5.356,0 8.244,-3.078 8.434,-9.309 h -5.243 c 0,3.533 -1.292,4.673 -3.191,4.673 -2.09,0 -3.42,-0.835 -3.42,-3.875 V 5.85 c 0,-3.039 1.33,-3.875 3.42,-3.875 1.974,0 3.191,1.443 3.191,3.798 v 1.672 h -3.686 v 4.332 H 3.534 V -2.281 H 0.798 Z" /></g><g
           transform="translate(695.2393,370.9746)"
           id="g100"><path
             id="path102"
             style="fill:#000000;fill-opacity:1;fill-rule:nonzero;stroke:none"
             d="M 0,0 V 27.433 H 14.362 V 22.797 H 5.243 V 16.49 h 6.953 V 11.855 H 5.243 V 4.637 h 9.499 V 0 Z" /></g><g
           transform="translate(714.543,370.9746)"
           id="g104"><path
             id="path106"
             style="fill:#000000;fill-opacity:1;fill-rule:nonzero;stroke:none"
             d="m 0,0 v 27.433 h 5.737 l 7.295,-16.261 h 0.076 v 16.261 h 4.788 V 0 H 12.881 L 4.863,17.707 H 4.788 L 4.788,0 Z" /></g><g
           transform="translate(737.458,370.9746)"
           id="g108"><path
             id="path110"
             style="fill:#000000;fill-opacity:1;fill-rule:nonzero;stroke:none"
             d="M 0,0 V 27.433 H 14.362 V 22.797 H 5.243 V 16.49 h 6.953 V 11.855 H 5.243 V 4.637 h 9.499 V 0 Z" /></g><g
           transform="translate(761.7012,386.4766)"
           id="g112"><path
             id="path114"
             style="fill:#000000;fill-opacity:1;fill-rule:nonzero;stroke:none"
             d="M 0,0 H 2.698 C 5.016,0 6.421,1.141 6.421,3.801 6.421,6.459 5.016,7.6 2.698,7.6 H 0 Z M 7.067,-15.502 2.508,-4.33 H 0 v -11.172 h -5.243 v 27.433 h 7.598 c 6.308,0 9.309,-3.04 9.309,-8.206 0,-3.42 -1.216,-5.891 -4.141,-6.993 l 5.167,-12.234 z" /></g><g
           transform="translate(783.208,381.3867)"
           id="g116"><path
             id="path118"
             style="fill:#000000;fill-opacity:1;fill-rule:nonzero;stroke:none"
             d="M 0,0 H 5.205 L 2.66,11.094 H 2.584 Z m -7.484,-10.412 6.8,27.433 h 6.725 l 6.611,-27.433 H 7.637 l -1.329,5.775 h -7.257 l -1.483,-5.775 z" /></g><g
           transform="translate(803.501,379.1055)"
           id="g120"><path
             id="path122"
             style="fill:#000000;fill-opacity:1;fill-rule:nonzero;stroke:none"
             d="m 0,0 c 0,-3.039 1.33,-3.875 3.42,-3.875 2.09,0 3.42,0.836 3.42,3.875 v 1.824 h 5.243 v -1.14 c 0,-6.762 -3.572,-9.194 -8.663,-9.194 -5.092,0 -8.663,2.432 -8.663,9.194 v 9.802 c 0,6.764 3.571,9.196 8.663,9.196 5.091,0 8.663,-2.432 8.663,-9.196 V 10.41 H 6.84 v 0.762 c 0,3.039 -1.33,3.875 -3.42,3.875 C 1.33,15.047 0,14.211 0,11.172 Z" /></g><path
           id="path124"
           style="fill:#000000;fill-opacity:1;fill-rule:nonzero;stroke:none"
           d="m 820.145,398.408 h 5.243 v -27.433 h -5.243 z" /><g
           transform="translate(844.8057,405.5122)"
           id="g126"><path
             id="path128"
             style="fill:#000000;fill-opacity:1;fill-rule:nonzero;stroke:none"
             d="M 0,0 -5.586,-5.547 H -9.423 L -5.89,0 Z m -9.613,-26.407 c 0,-3.039 1.33,-3.875 3.42,-3.875 2.089,0 3.42,0.836 3.42,3.875 v 11.172 c 0,3.039 -1.331,3.875 -3.42,3.875 -2.09,0 -3.42,-0.836 -3.42,-3.875 z m -5.243,10.487 c 0,6.764 3.571,9.195 8.663,9.195 5.09,0 8.663,-2.431 8.663,-9.195 v -9.803 c 0,-6.762 -3.573,-9.194 -8.663,-9.194 -5.092,0 -8.663,2.432 -8.663,9.194 z" /></g><g
           transform="translate(851.8379,370.9746)"
           id="g130"><path
             id="path132"
             style="fill:#000000;fill-opacity:1;fill-rule:nonzero;stroke:none"
             d="m 0,0 v 27.433 h 5.737 l 7.295,-16.261 h 0.076 v 16.261 h 4.788 V 0 H 12.881 L 4.863,17.707 H 4.788 L 4.788,0 Z" /></g><g
           transform="translate(890.5586,375.6113)"
           id="g134"><path
             id="path136"
             style="fill:#000000;fill-opacity:1;fill-rule:nonzero;stroke:none"
             d="m 0,0 h 1.824 c 2.888,0 4.56,1.367 4.56,5.471 v 7.218 c 0,3.875 -1.292,5.471 -4.56,5.471 H 0 Z m -5.243,22.796 h 7.295 c 6.003,0 9.346,-2.584 9.575,-9.499 V 4.863 c -0.229,-6.916 -3.572,-9.5 -9.575,-9.5 h -7.295 z" /></g><g
           transform="translate(906.4443,370.9746)"
           id="g138"><path
             id="path140"
             style="fill:#000000;fill-opacity:1;fill-rule:nonzero;stroke:none"
             d="M 0,0 V 27.433 H 14.362 V 22.797 H 5.243 V 16.49 h 6.953 V 11.855 H 5.243 V 4.637 h 9.499 V 0 Z" /></g><g
           transform="translate(941.5557,386.3242)"
           id="g142"><path
             id="path144"
             style="fill:#000000;fill-opacity:1;fill-rule:nonzero;stroke:none"
             d="m 0,0 h 2.813 c 2.583,0 3.874,1.293 3.874,3.877 0,2.582 -1.291,3.875 -3.874,3.875 H 0 Z m -5.243,-15.35 v 27.433 h 7.561 c 6.459,0 9.613,-3.04 9.613,-8.206 0,-5.168 -3.154,-8.207 -9.613,-8.207 H 0 v -11.02 z" /></g><g
           transform="translate(961.3584,381.3867)"
           id="g146"><path
             id="path148"
             style="fill:#000000;fill-opacity:1;fill-rule:nonzero;stroke:none"
             d="M 0,0 H 5.205 L 2.66,11.094 H 2.584 Z m -7.484,-10.412 6.8,27.433 h 6.725 l 6.611,-27.433 H 7.637 l -1.329,5.775 h -7.257 l -1.483,-5.775 z" /></g><g
           transform="translate(976.8252,398.4077)"
           id="g150"><path
             id="path152"
             style="fill:#000000;fill-opacity:1;fill-rule:nonzero;stroke:none"
             d="M 0,0 H 15.198 V -4.408 L 4.825,-22.796 h 10.601 v -4.637 H -1.063 v 4.445 L 9.309,-4.636 H 0 Z" /></g><g
           transform="translate(263.7363,505.8228)"
           id="g154"><path
             id="path156"
             style="fill:#000000;fill-opacity:1;fill-rule:nonzero;stroke:none"
             d="m 0,0 h 9.984 c 16.847,0 22.047,5.2 22.047,23.087 0,17.888 -5.2,23.088 -22.047,23.088 H 0 Z M -25.791,-82.781 V 67.39 h 37.023 c 31.823,0 46.59,-12.272 46.59,-44.303 0,-32.03 -14.767,-44.302 -46.59,-44.302 H 0 v -61.566 z" /></g><g
           transform="translate(365.2412,478.7837)"
           id="g158"><path
             id="path160"
             style="fill:#000000;fill-opacity:1;fill-rule:nonzero;stroke:none"
             d="M 0,0 H 20.799 L 10.607,64.478 H 10.191 Z M -8.32,-55.742 H -33.279 L -5.616,94.429 H 26.415 L 54.077,-55.742 H 29.118 l -4.575,33.279 H -3.744 Z" /></g><g
           transform="translate(486.292,523.0864)"
           id="g162"><path
             id="path164"
             style="fill:#000000;fill-opacity:1;fill-rule:nonzero;stroke:none"
             d="m 0,0 v 11.647 c 0,12.688 -5.823,18.095 -12.479,18.095 -10.4,0 -13.728,-5.407 -13.728,-16.638 v -76.126 c 0,-11.232 3.328,-16.639 13.728,-16.639 9.36,0 12.479,5.407 12.479,15.183 v 18.095 h 25.791 v -17.263 c 0,-21.215 -12.479,-38.479 -38.27,-38.479 -27.04,0 -39.519,17.264 -39.519,38.479 v 77.374 c 0,21.214 12.479,38.478 39.519,38.478 25.791,0 38.27,-18.72 38.27,-41.183 L 25.791,0 Z" /></g><path
           id="path166"
           style="fill:#000000;fill-opacity:1;fill-rule:nonzero;stroke:none"
           d="m 541.83,573.212 h 25.791 V 423.041 H 541.83 Z" /><g
           transform="translate(596.1182,423.0415)"
           id="g168"><path
             id="path170"
             style="fill:#000000;fill-opacity:1;fill-rule:nonzero;stroke:none"
             d="M 0,0 V 150.171 H 71.966 V 127.708 H 25.791 V 89.021 H 60.318 V 66.558 H 25.791 L 25.791,0 Z" /></g><path
           id="path172"
           style="fill:#000000;fill-opacity:1;fill-rule:nonzero;stroke:none"
           d="m 692.003,573.212 h 25.791 V 423.041 h -25.791 z" /><g
           transform="translate(793.2979,536.1899)"
           id="g174"><path
             id="path176"
             style="fill:#000000;fill-opacity:1;fill-rule:nonzero;stroke:none"
             d="m 0,0 c -1.04,12.896 -7.904,16.639 -13.728,16.639 -8.32,0 -12.895,-5.408 -12.895,-14.767 0,-25.583 52.414,-37.855 52.414,-78.621 0,-24.752 -16.64,-38.48 -40.767,-38.48 -23.92,0 -37.647,19.136 -38.686,41.599 l 24.543,3.536 c 1.04,-15.183 7.071,-22.671 15.391,-22.671 8.944,0 14.975,4.784 14.975,13.728 0,29.742 -52.414,37.646 -52.414,80.701 0,23.919 14.56,37.439 39.935,37.439 21.007,0 33.487,-15.184 35.775,-36.399 z" /></g><g
           transform="translate(853.6152,550.7495)"
           id="g178"><path
             id="path180"
             style="fill:#000000;fill-opacity:1;fill-rule:nonzero;stroke:none"
             d="M 0,0 H -24.959 V 22.463 H 50.75 V 0 H 25.791 V -127.708 H 0 Z" /></g><g
           transform="translate(939.1025,478.7837)"
           id="g182"><path
             id="path184"
             style="fill:#000000;fill-opacity:1;fill-rule:nonzero;stroke:none"
             d="M 0,0 H 20.8 L 10.608,64.478 H 10.192 Z M -8.319,-55.742 H -33.278 L -5.615,94.429 h 32.03 L 54.078,-55.742 H 29.119 l -4.576,33.279 H -3.743 Z" /></g><path
           id="path186"
           style="fill:#000000;fill-opacity:1;fill-rule:nonzero;stroke:none"
           d="m 1012.316,447.584 h 24.543 v -24.543 h -24.543 z m -0.832,125.628 h 26.207 l -4.576,-106.076 h -17.055 z" /><path
           id="path188"
           style="fill:#000000;fill-opacity:1;fill-rule:nonzero;stroke:none"
           d="m 211.65,548.674 h -24.511 v 24.51 h 24.511 z m 0.83,-125.46 h -26.171 l 4.569,105.935 h 17.033 z" /><g
           transform="translate(548.7334,297.1758)"
           id="g190"><path
             id="path192"
             style="fill:#000000;fill-opacity:1;fill-rule:nonzero;stroke:none"
             d="m 0,0 v -12.121 c 0,-1.654 0.72,-2.52 2.328,-2.52 1.608,0 2.352,0.866 2.352,2.52 V 0 h 3.312 v -12.145 c 0,-3.816 -2.256,-5.423 -5.664,-5.423 -3.409,0 -5.641,1.607 -5.641,5.423 l 0,12.145 z" /></g><g
           transform="translate(560.084,279.8477)"
           id="g194"><path
             id="path196"
             style="fill:#000000;fill-opacity:1;fill-rule:nonzero;stroke:none"
             d="M 0,0 V 17.328 H 3.625 L 8.233,7.057 h 0.048 v 10.271 h 3.025 V 0 H 8.137 L 3.072,11.184 H 3.024 V 0 Z" /></g><g
           transform="translate(584.7324,289.5449)"
           id="g198"><path
             id="path200"
             style="fill:#000000;fill-opacity:1;fill-rule:nonzero;stroke:none"
             d="m 0,0 h 1.776 c 1.632,0 2.449,0.814 2.449,2.447 0,1.633 -0.817,2.449 -2.449,2.449 H 0 Z M -3.313,-9.697 V 7.631 h 4.777 c 4.081,0 6.073,-1.92 6.073,-5.184 0,-3.263 -1.992,-5.183 -6.073,-5.183 H 0 v -6.961 z" /></g><g
           transform="translate(597.8838,289.6406)"
           id="g202"><path
             id="path204"
             style="fill:#000000;fill-opacity:1;fill-rule:nonzero;stroke:none"
             d="m 0,0 h 1.704 c 1.465,0 2.353,0.719 2.353,2.4 0,1.68 -0.888,2.401 -2.353,2.401 H 0 Z m 4.465,-9.793 -2.88,7.057 H 0 V -9.793 H -3.312 V 7.535 h 4.8 c 3.985,0 5.881,-1.92 5.881,-5.183 0,-2.161 -0.768,-3.721 -2.616,-4.416 l 3.264,-7.729 z" /></g><g
           transform="translate(610.9395,284.9844)"
           id="g206"><path
             id="path208"
             style="fill:#000000;fill-opacity:1;fill-rule:nonzero;stroke:none"
             d="m 0,0 c 0,-1.922 0.841,-2.449 2.16,-2.449 1.32,0 2.161,0.527 2.161,2.449 V 7.057 C 4.321,8.977 3.48,9.504 2.16,9.504 0.841,9.504 0,8.977 0,7.057 Z m -3.312,6.623 c 0,4.273 2.256,5.809 5.472,5.809 3.217,0 5.473,-1.536 5.473,-5.809 V 0.432 c 0,-4.274 -2.256,-5.809 -5.473,-5.809 -3.216,0 -5.472,1.535 -5.472,5.809 z" /></g><g
           transform="translate(626.4922,290.1914)"
           id="g210"><path
             id="path212"
             style="fill:#000000;fill-opacity:1;fill-rule:nonzero;stroke:none"
             d="M 0,0 2.808,6.984 H 6.336 L 1.607,-3.336 v -7.008 h -3.311 v 7.008 l -4.729,10.32 h 3.529 z" /></g><g
           transform="translate(634.6035,279.8477)"
           id="g214"><path
             id="path216"
             style="fill:#000000;fill-opacity:1;fill-rule:nonzero;stroke:none"
             d="M 0,0 V 17.328 H 9.072 V 14.4 H 3.312 V 10.416 H 7.704 V 7.488 H 3.312 V 2.928 H 9.313 L 9.313,0 Z" /></g><g
           transform="translate(649.627,284.9844)"
           id="g218"><path
             id="path220"
             style="fill:#000000;fill-opacity:1;fill-rule:nonzero;stroke:none"
             d="m 0,0 c 0,-1.922 0.841,-2.449 2.16,-2.449 1.32,0 2.161,0.527 2.161,2.449 V 1.15 H 7.633 V 0.432 c 0,-4.274 -2.256,-5.809 -5.473,-5.809 -3.216,0 -5.472,1.535 -5.472,5.809 v 6.191 c 0,4.273 2.256,5.809 5.472,5.809 3.217,0 5.473,-1.536 5.473,-5.809 V 6.576 H 4.321 V 7.057 C 4.321,8.977 3.48,9.504 2.16,9.504 0.841,9.504 0,8.977 0,7.057 Z" /></g><g
           transform="translate(669.9795,297.1758)"
           id="g222"><path
             id="path224"
             style="fill:#000000;fill-opacity:1;fill-rule:nonzero;stroke:none"
             d="m 0,0 v -2.928 h -3.864 v -14.4 h -3.313 v 14.4 h -3.864 V 0 Z" /></g><g
           transform="translate(674.9717,284.9844)"
           id="g226"><path
             id="path228"
             style="fill:#000000;fill-opacity:1;fill-rule:nonzero;stroke:none"
             d="m 0,0 c 0,-1.922 0.84,-2.449 2.16,-2.449 1.32,0 2.16,0.527 2.16,2.449 V 7.057 C 4.32,8.977 3.48,9.504 2.16,9.504 0.84,9.504 0,8.977 0,7.057 Z m -3.313,6.623 c 0,4.273 2.256,5.809 5.473,5.809 3.216,0 5.473,-1.536 5.473,-5.809 V 0.432 c 0,-4.274 -2.257,-5.809 -5.473,-5.809 -3.217,0 -5.473,1.535 -5.473,5.809 z" /></g><g
           transform="translate(695.2744,282.7754)"
           id="g230"><path
             id="path232"
             style="fill:#000000;fill-opacity:1;fill-rule:nonzero;stroke:none"
             d="m 0,0 h 1.152 c 1.825,0 2.881,0.863 2.881,3.457 v 4.561 c 0,2.447 -0.816,3.455 -2.881,3.455 H 0 Z m -3.313,14.4 h 4.61 c 3.791,0 5.904,-1.63 6.049,-6 V 3.072 c -0.145,-4.369 -2.258,-6 -6.049,-6 h -4.61 z" /></g><g
           transform="translate(705.3057,279.8477)"
           id="g234"><path
             id="path236"
             style="fill:#000000;fill-opacity:1;fill-rule:nonzero;stroke:none"
             d="M 0,0 V 17.328 H 9.072 V 14.4 H 3.313 V 10.416 H 7.705 V 7.488 H 3.313 v -4.56 h 6 L 9.313,0 Z" /></g><g
           transform="translate(654.6143,255.7773)"
           id="g238"><path
             id="path240"
             style="fill:#000000;fill-opacity:1;fill-rule:evenodd;stroke:none"
             d="M 0,0 C 1.372,-1.562 4.373,-1.496 6.161,-2.641 3.751,-3.262 0.717,-3.26 -1.466,-4.107 -0.955,-2.76 -0.491,-1.367 0,0" /></g><g
           transform="translate(637.5996,250.3496)"
           id="g242"><path
             id="path244"
             style="fill:#020202;fill-opacity:1;fill-rule:evenodd;stroke:none"
             d="m 0,0 c -0.72,-3.289 -2.232,-7.057 -3.08,-10.707 4.661,-0.066 9.577,0.885 14.375,1.172 0.647,0.869 0.969,2.062 1.32,3.228 0.963,-1.363 1.639,-3.908 0.733,-5.869 -7.277,0.106 -12.513,-5.857 -19.655,-5.865 -3.199,-0.006 -5.915,1.838 -4.401,5.426 C -8.568,-7.547 -3.264,-4.008 0,0" /></g><g
           transform="translate(659.8955,261.6445)"
           id="g246"><path
             id="path248"
             style="fill:#000000;fill-opacity:1;fill-rule:evenodd;stroke:none"
             d="m 0,0 c -1.861,-0.229 -3.182,-2.26 -4.4,-2.934 0.089,0.008 0.173,0.022 0.145,0.147 0.223,1 0.647,1.799 0.734,2.933 -9.763,3.438 -19.262,-1.589 -26.255,-5.427 -5.591,-3.067 -10.582,-6.672 -14.082,-10.268 1.264,2.156 2.61,4.291 4.107,6.307 1.52,2.047 3.213,3.898 4.547,5.721 -2.922,0.763 -5.853,1.574 -8.801,2.201 -4.192,0.89 -10.022,2.369 -13.494,0.439 -1.005,-0.558 -1.826,-1.928 -2.788,-2.053 -0.793,-0.103 -2.102,0.477 -3.08,0.586 -3.584,0.399 -6.881,0.063 -10.121,-0.586 -3.034,-0.609 -9.448,-1.687 -10.268,-4.548 -0.526,-1.832 0.646,-3.614 0.441,-5.426 -0.204,-1.789 -1.917,-4.151 -2.788,-5.574 -1.067,-1.747 -2.15,-3.297 -3.96,-4.108 -1.098,5.465 0.096,10.324 1.027,14.963 0.573,2.856 1.733,5.775 0.733,8.652 -2.796,0.389 -5.152,-1.824 -7.921,-2.931 -5.201,-2.082 -10.999,-3.981 -11.734,-9.975 -0.414,-3.377 0.856,-5.525 1.76,-7.922 1.941,-5.15 4.343,-9.511 7.187,-13.494 -0.773,-1.428 -2.601,-1.801 -2.787,-3.814 0.827,-1.168 2.552,-1.325 4.254,-1.321 4.922,0.014 8.956,2.491 12.615,4.547 7.96,4.477 13.307,11.371 18.922,17.895 0.987,1.148 1.801,2.533 3.08,3.226 1.262,-5.793 -1.19,-8.894 -2.933,-13.64 -0.673,-1.828 -2.795,-7.549 -1.761,-10.266 1.134,-2.98 10.788,-3.109 13.348,-1.176 1.29,0.975 1.804,3.178 2.495,4.549 0.884,1.76 1.649,3.283 2.346,4.84 0.042,-6.428 4.812,-8.316 9.974,-9.682 10.97,-2.9 22.031,2.28 28.017,5.869 -0.747,-4.765 1.102,-5.244 4.839,-6.015 9.675,-1.998 19.417,0.305 27.285,2.199 7.209,1.738 13.01,2.963 14.08,10.123 -1.156,0.998 -4.038,0.877 -6.014,0.586 -5.817,-0.852 -11.451,-3.793 -19.215,-3.227 -1.413,0.104 -4.475,0.6 -4.693,1.467 -0.341,1.348 2.083,2.299 4.107,2.641 5.825,0.982 14.236,-0.014 18.921,1.762 2.253,0.849 4.966,3.3 4.694,6.011 -0.184,1.836 -2.573,2.793 -4.84,2.934 -6.419,0.4 -11.007,-3.346 -17.748,-2.053 0.842,1.063 0.997,2.817 2.052,3.666 4.926,0.104 9.712,-0.875 14.375,-0.588 6.482,0.405 10.14,3.139 13.202,6.748 0.331,0.391 1.152,0.809 0.88,1.469 C 29.225,-2.838 13.883,1.701 0,0 m 51.045,-0.586 c 0.177,-0.713 -0.614,-1.391 -1.026,-1.908 -3.451,-4.34 -7.28,-9.469 -11.881,-12.762 0.333,-1.724 0.158,-4.017 -0.441,-5.281 1.201,-1.537 2.48,-2.996 3.227,-4.986 -0.978,-5.206 -3.258,-9.245 -6.894,-11.883 -3.549,-2.573 -8.346,-3.582 -13.789,-4.838 -10.523,-2.43 -27.836,-4.82 -35.642,1.465 -8.454,-4.957 -25.539,-5.61 -33.445,0.293 -5.621,-7.11 -27.793,-6.487 -24.495,7.629 -4.11,-3.114 -10.187,-7.407 -15.989,-9.827 -6.725,-2.808 -19.463,-2.492 -18.189,7.039 0.152,1.135 0.632,1.78 1.174,2.788 -1.967,3.433 -3.211,5.812 -4.4,8.802 -1.14,2.86 -2.88,6.119 -3.08,10.119 -0.428,8.504 6.199,13.897 12.761,16.428 3.35,1.293 6.073,3.164 9.387,4.108 4.956,1.41 9.208,-1.317 9.534,-5.868 5.762,1.711 12.779,3.596 20.39,2.495 6.062,4.709 17.893,1.798 25.669,-0.44 1.759,-0.506 4.126,-1.816 5.427,-1.762 1.104,0.047 3.097,1.541 4.255,2.055 5.455,2.418 12.589,4.994 20.388,3.668 1.478,-0.252 2.829,-1.033 4.4,-1.176 1.067,-0.095 2.373,0.24 3.52,0.295 18.228,0.887 33.4,-4.004 49.139,-6.453" /></g></g></g></g></svg>